<svg xmlns="http://www.w3.org/2000/svg" viewBox="100 80 700 570">
  <path fill="#0a0a0a" d="M317.5 609.9 c-54.5 -1.5 -74.1 -3.2 -103.5 -9.4 -27.4 -5.8 -51.2 -17.5 -66 -32.5 -15.1 -15.2 -23.2 -33.9 -26.5 -61.2 -1.7 -13.9 -1.7 -15.2 -0.1 -26.5 5 -34.1 14.6 -55 36.1 -78.1 14.3 -15.3 39.4 -33.5 52.8 -38.2 3.5 -1.2 3.6 -4.9 0.1 -8.7 -5.7 -6.2 -12.4 -17 -18.5 -29.8 l-6.4 -13.6 -4 0.8 c-4.8 1 -22.8 0.6 -30.5 -0.7 -8.2 -1.3 -22.8 -6.9 -26.6 -10.2 -4.9 -4.4 -4.6 -7.1 1.4 -9.6 2.6 -1.1 7 -2.7 9.7 -3.5 8.6 -2.6 23.6 -8.6 26.5 -10.7 3.6 -2.6 5.4 -7.1 4.7 -11.7 -0.5 -3 -2.6 -5.7 -10.5 -13.8 -5.5 -5.5 -11.7 -12.5 -13.9 -15.5 -8.5 -11.9 -16.3 -32.3 -16.3 -42.5 0 -7.8 6 -9.8 14.1 -4.7 2.4 1.6 11.6 6.6 20.4 11.2 8.8 4.6 18 9.4 20.4 10.7 4.1 2.1 4.6 2.2 6.2 0.7 1 -0.9 2.3 -3.3 3 -5.3 1.6 -5.3 11.4 -23.3 16.7 -31 5.5 -8 18.7 -22.9 26.9 -30.2 14.3 -12.9 35.2 -24.8 53.3 -30.3 9 -2.7 33.1 -6.6 40.9 -6.6 5.4 0 31.3 3.5 38 5.2 5.6 1.4 24 8.2 29 10.7 15.5 7.9 29.3 18.1 41.9 30.8 29.2 29.4 43 66.4 40.1 107.3 -1.8 25.6 -12.7 50.4 -30.9 70.5 -2.8 3.1 -4.9 6.2 -4.7 6.8 0.5 1.5 3 2.2 15.2 4.2 5.5 0.9 15 2.6 21 3.8 9.3 1.9 14.5 2.2 33.5 2.2 23.8 0 27 -0.4 37.9 -5.2 3 -1.3 7.3 -3.7 9.5 -5.4 34.8 -25.9 46.1 -34 51.1 -36.7 11.5 -6.1 26.3 5.9 44.8 36.3 9.3 15.3 13.1 25.9 16.1 45 5.3 33.1 0.6 71 -13.2 107 -3.2 8.5 -16.2 34.4 -19.1 38.2 -1.2 1.6 -5.6 7.3 -9.7 12.8 -16.5 21.7 -37.8 39.7 -57.4 48.2 -3 1.4 -7.3 3.3 -9.5 4.3 -8.5 3.9 -33.6 10 -49 11.9 -28.4 3.6 -120.9 5 -195 3z"/>
  <text x="370" y="500" text-anchor="middle" dominant-baseline="middle"
        font-family="'IBM Plex Mono',monospace" font-size="190" font-weight="800"
        fill="#ffcf5c" letter-spacing="0">DW</text>
</svg>
